<?xml version="1.0" encoding="UTF-8"?>
<svg id="Layer_1" data-name="Layer 1" xmlns="http://www.w3.org/2000/svg" xmlns:xlink="http://www.w3.org/1999/xlink" viewBox="0 0 2000 2000">
  <defs>
    <style>
      .cls-1, .cls-2 {
        fill: none;
      }

      .cls-3 {
        fill: url(#linear-gradient);
      }

      .cls-4 {
        fill: #010101;
      }

      .cls-5 {
        fill: url(#linear-gradient-8);
      }

      .cls-6 {
        fill: url(#linear-gradient-9);
      }

      .cls-7 {
        fill: url(#linear-gradient-3);
      }

      .cls-8 {
        fill: url(#linear-gradient-4);
      }

      .cls-9 {
        fill: url(#linear-gradient-2);
      }

      .cls-10 {
        fill: url(#linear-gradient-6);
      }

      .cls-11 {
        fill: url(#linear-gradient-7);
      }

      .cls-12 {
        fill: url(#linear-gradient-5);
      }

      .cls-13 {
        fill: url(#linear-gradient-14);
      }

      .cls-14 {
        fill: url(#linear-gradient-18);
      }

      .cls-15 {
        fill: url(#linear-gradient-22);
      }

      .cls-16 {
        fill: url(#linear-gradient-20);
      }

      .cls-17 {
        fill: url(#linear-gradient-21);
      }

      .cls-18 {
        fill: url(#linear-gradient-23);
      }

      .cls-19 {
        fill: url(#linear-gradient-15);
      }

      .cls-20 {
        fill: url(#linear-gradient-19);
      }

      .cls-21 {
        fill: url(#linear-gradient-16);
      }

      .cls-22 {
        fill: url(#linear-gradient-17);
      }

      .cls-23 {
        fill: url(#linear-gradient-13);
      }

      .cls-24 {
        fill: url(#linear-gradient-12);
      }

      .cls-25 {
        fill: url(#linear-gradient-10);
      }

      .cls-26 {
        fill: url(#linear-gradient-11);
      }

      .cls-27 {
        fill: url(#linear-gradient-24);
      }

      .cls-28 {
        fill: url(#linear-gradient-26);
      }

      .cls-29 {
        fill: url(#linear-gradient-25);
      }

      .cls-2 {
        clip-path: url(#clippath);
      }
    </style>
    <clipPath id="clippath">
      <path class="cls-1" d="m1454.8,1232.57c0,251.18-203.62,454.8-454.8,454.8h0c-251.18,0-454.8-203.62-454.8-454.8v-465.15c0-251.18,203.62-454.8,454.8-454.8h0c251.18,0,454.8,203.62,454.8,454.8v465.15Z"/>
    </clipPath>
    <linearGradient id="linear-gradient" x1="498.03" y1="520.15" x2="1788.72" y2="347.38" gradientUnits="userSpaceOnUse">
      <stop offset="0" stop-color="#fff"/>
      <stop offset="1" stop-color="#000"/>
    </linearGradient>
    <linearGradient id="linear-gradient-2" x1="493.3" y1="484.86" x2="1784" y2="312.09" xlink:href="#linear-gradient"/>
    <linearGradient id="linear-gradient-3" x1="496.03" y1="505.26" x2="1786.73" y2="332.49" xlink:href="#linear-gradient"/>
    <linearGradient id="linear-gradient-4" x1="492.51" y1="478.97" x2="1783.21" y2="306.2" xlink:href="#linear-gradient"/>
    <linearGradient id="linear-gradient-5" x1="495.59" y1="501.93" x2="1786.27" y2="329.16" xlink:href="#linear-gradient"/>
    <linearGradient id="linear-gradient-6" x1="503.68" y1="562.42" x2="1794.38" y2="389.65" xlink:href="#linear-gradient"/>
    <linearGradient id="linear-gradient-7" x1="510.85" y1="615.94" x2="1801.53" y2="443.17" xlink:href="#linear-gradient"/>
    <linearGradient id="linear-gradient-8" x1="789.89" y1="708.18" x2="1194.74" y2="689.09" xlink:href="#linear-gradient"/>
    <linearGradient id="linear-gradient-9" x1="817.34" y1="953.12" x2="1179.7" y2="936.03" xlink:href="#linear-gradient"/>
    <linearGradient id="linear-gradient-10" x1="697.98" y1="993.07" x2="1365.84" y2="961.57" xlink:href="#linear-gradient"/>
    <linearGradient id="linear-gradient-11" x1="803.37" y1="1079.98" x2="1227.86" y2="1059.96" xlink:href="#linear-gradient"/>
    <linearGradient id="linear-gradient-12" x1="508.52" y1="1150.83" x2="1486.98" y2="1104.68" xlink:href="#linear-gradient"/>
    <linearGradient id="linear-gradient-13" x1="754.38" y1="1285.12" x2="975.35" y2="1274.7" xlink:href="#linear-gradient"/>
    <linearGradient id="linear-gradient-14" x1="675.64" y1="1321.6" x2="1223.35" y2="1295.76" xlink:href="#linear-gradient"/>
    <linearGradient id="linear-gradient-15" x1="404.69" y1="1286.56" x2="1635.62" y2="1228.49" xlink:href="#linear-gradient"/>
    <linearGradient id="linear-gradient-16" x1="698.07" y1="1469.12" x2="1590.05" y2="1019.74" xlink:href="#linear-gradient"/>
    <linearGradient id="linear-gradient-17" x1="726.43" y1="1525.42" x2="1618.42" y2="1076.03" xlink:href="#linear-gradient"/>
    <linearGradient id="linear-gradient-18" x1="745.23" y1="1562.73" x2="1637.21" y2="1113.35" xlink:href="#linear-gradient"/>
    <linearGradient id="linear-gradient-19" x1="773.3" y1="1618.44" x2="1665.28" y2="1169.07" xlink:href="#linear-gradient"/>
    <linearGradient id="linear-gradient-20" x1="789.55" y1="1650.7" x2="1681.54" y2="1201.32" xlink:href="#linear-gradient"/>
    <linearGradient id="linear-gradient-21" x1="804.07" y1="1679.52" x2="1696.05" y2="1230.14" xlink:href="#linear-gradient"/>
    <linearGradient id="linear-gradient-22" x1="816.9" y1="1704.98" x2="1708.88" y2="1255.61" xlink:href="#linear-gradient"/>
    <linearGradient id="linear-gradient-23" x1="818.94" y1="1709.04" x2="1710.93" y2="1259.66" xlink:href="#linear-gradient"/>
    <linearGradient id="linear-gradient-24" x1="818.09" y1="1707.36" x2="1710.08" y2="1257.98" xlink:href="#linear-gradient"/>
    <linearGradient id="linear-gradient-25" x1="812.35" y1="1695.96" x2="1704.33" y2="1246.58" xlink:href="#linear-gradient"/>
    <linearGradient id="linear-gradient-26" x1="804.88" y1="1681.14" x2="1696.87" y2="1231.76" xlink:href="#linear-gradient"/>
  </defs>
  <g class="cls-2">
    <g>
      <rect class="cls-4" width="2000" height="2000"/>
      <path class="cls-3" d="m769.91,540.36c.52.63,1.21.99,2.07,1.07.86.08,1.61-.13,2.24-.65l11.36-9.35c.69-.57,1.07-1.27,1.12-2.11.05-.84-.18-1.57-.7-2.2l-29.22-35.51,26.98,10.99c.78.31,1.61.48,2.48.5.87.03,1.74-.32,2.63-1.05l4.92-4.05c.88-.73,1.4-1.52,1.54-2.38.14-.86.14-1.7-.02-2.53l-5.68-28.51,29.21,35.51c.52.63,1.21.99,2.07,1.07.86.08,1.64-.16,2.34-.73l11.27-9.27c.69-.57,1.08-1.29,1.17-2.15.08-.86-.13-1.61-.65-2.24l-50.64-61.54c-.57-.69-1.28-1.07-2.11-1.12-.84-.05-1.6.21-2.3.78l-10.13,8.34c-1.07.88-1.62,1.79-1.66,2.71-.03.93-.01,1.62.06,2.1l7.88,43.54-41.2-16.11c-.39-.21-1.05-.38-2-.5-.95-.12-1.96.26-3.03,1.14l-10.23,8.41c-.63.52-1,1.2-1.11,2.03-.11.83.12,1.59.69,2.29l50.64,61.54Z"/>
      <path class="cls-9" d="m846.26,482.07c.29.76.81,1.33,1.57,1.7.75.37,1.55.39,2.39.07l14.77-5.67c.84-.32,1.44-.88,1.79-1.67.35-.79.38-1.57.09-2.33l-9.75-25.41,11.68-4.48,22.71,20.18c.54.5,1.29.97,2.26,1.43.97.46,2.17.41,3.62-.14l15.23-5.84c.61-.23,1.07-.69,1.37-1.38.31-.69.34-1.33.11-1.95-.15-.38-.42-.76-.83-1.13l-26.49-22.15c3.54-3.55,5.89-7.69,7.05-12.42,1.16-4.73.7-9.81-1.38-15.23-3.19-8.32-8.48-13.66-15.87-16.04-7.39-2.37-16.05-1.66-25.97,2.15l-31.14,11.95c-.84.32-1.42.85-1.75,1.59-.33.74-.33,1.53,0,2.37l28.55,74.41Zm10.23-74.32c3.74-1.43,6.82-1.57,9.24-.39,2.42,1.17,4.2,3.25,5.34,6.22,1.14,2.98,1.15,5.69.03,8.13-1.12,2.44-3.47,4.35-7.06,5.73l-13.17,5.05-7.55-19.69,13.16-5.05Z"/>
      <path class="cls-7" d="m921.61,456.71c.15.8.56,1.45,1.24,1.95s1.45.66,2.34.5l15.31-2.86c.8-.15,1.45-.58,1.94-1.3.49-.71.66-1.47.51-2.28l-2.86-15.31c-.17-.88-.6-1.55-1.31-2-.71-.45-1.46-.6-2.27-.45l-15.31,2.86c-.89.17-1.56.58-2.01,1.25-.46.67-.6,1.44-.44,2.33l2.86,15.31Z"/>
      <path class="cls-8" d="m1027.89,450.82c.77.66,1.89,1,3.36,1.01l18.27.15c.74,0,1.35-.25,1.85-.78.5-.53.74-1.12.75-1.77,0-.65-.16-1.15-.48-1.48l-31.29-40.98,29.74-36.78c.25-.41.38-.9.38-1.47,0-.65-.24-1.25-.72-1.78-.48-.53-1.1-.81-1.83-.81l-17.66-.15c-1.31-.01-2.35.25-3.13.77-.78.53-1.34,1.03-1.67,1.52l-22.92,27.76.23-27.22c0-.9-.27-1.64-.84-2.21-.57-.58-1.3-.87-2.2-.88l-15.45-.13c-.9,0-1.64.27-2.21.84-.58.57-.87,1.3-.88,2.2l-.67,79.7c0,.82.27,1.53.84,2.15.57.62,1.3.93,2.2.94l15.45.13c.9,0,1.64-.29,2.22-.9.58-.61.87-1.32.88-2.14l.25-29.67,24.02,30.49c.24.33.75.82,1.52,1.49Z"/>
      <path class="cls-12" d="m1071.34,456.87c4.4,4.11,10.1,7.42,17.11,9.9,6.93,2.46,13.39,3.46,19.35,3.02,5.97-.44,11.22-2.53,15.75-6.26,4.53-3.73,8.09-9.25,10.69-16.57l16.71-47.15c.3-.85.26-1.64-.13-2.39-.39-.74-.97-1.25-1.74-1.53l-15.02-5.32c-.77-.27-1.54-.24-2.31.09-.77.34-1.3.93-1.6,1.77l-16.67,47.04c-1.77,5.01-4.32,8.33-7.63,9.98-3.31,1.64-7.13,1.7-11.44.17-4.39-1.56-7.34-4.01-8.84-7.36-1.5-3.35-1.37-7.53.41-12.54l16.67-47.04c.3-.85.26-1.64-.13-2.39-.39-.74-1.01-1.27-1.85-1.57l-14.91-5.29c-.85-.3-1.64-.28-2.37.07-.73.35-1.25.95-1.55,1.79l-16.71,47.15c-2.59,7.32-3.31,13.85-2.13,19.6,1.17,5.75,3.95,10.68,8.35,14.8Z"/>
      <path class="cls-10" d="m1133.42,483.3c.09.83.49,1.52,1.21,2.06l12.66,9.49c.72.54,1.51.75,2.37.63.86-.12,1.53-.51,2.02-1.17l16.33-21.78,10.01,7.5-5,29.97c-.13.72-.13,1.61-.01,2.67.12,1.06.8,2.06,2.05,2.99l13.05,9.78c.52.39,1.16.54,1.9.43.74-.11,1.31-.42,1.7-.94.25-.33.42-.76.52-1.3l4.66-34.21c4.89,1.11,9.64.9,14.27-.64,4.62-1.54,8.68-4.63,12.16-9.27,5.34-7.13,7.06-14.45,5.13-21.97-1.92-7.52-7.14-14.47-15.64-20.84l-26.68-20.01c-.72-.54-1.48-.75-2.28-.64-.8.11-1.47.53-2.01,1.25l-47.81,63.77c-.49.66-.69,1.4-.6,2.23Zm57.69-41.57l11.28,8.46c3.2,2.4,4.95,4.94,5.25,7.61.29,2.67-.51,5.28-2.43,7.84-1.91,2.55-4.2,4-6.87,4.35-2.67.35-5.54-.62-8.61-2.93l-11.28-8.46,12.65-16.87Z"/>
      <path class="cls-11" d="m1257.44,504.33l-48.64,40.85c-.63.53-.99,1.2-1.09,2.04-.1.83.14,1.59.72,2.28l10.41,12.39c.58.69,1.29,1.05,2.12,1.1.84.04,1.57-.2,2.2-.72l48.64-40.85,14.04,16.71c.58.69,1.29,1.05,2.12,1.1.84.04,1.57-.2,2.2-.72l10.05-8.44c.69-.58,1.07-1.27,1.14-2.08.07-.81-.18-1.55-.76-2.24l-42.43-50.52c-.58-.69-1.27-1.07-2.08-1.14-.81-.07-1.55.19-2.24.76l-10.05,8.44c-.63.53-.99,1.21-1.09,2.04-.1.83.14,1.59.72,2.28l14.04,16.71Z"/>
      <g>
        <path class="cls-5" d="m841.49,745.3s-17.83-137.5,117.13-169.33c134.96-31.83,211.98,37.56,212.62,119.68,0,0,87.21-3.18,75.12,84.67,0,0-24.83-82.12-130.5-47.11-105.67,35.01-243.17,126.04-338.66,97.4-95.49-28.65-43.29-37.56,14.64-31.19,57.93,6.37,95.49-15.28,143.23-45.2,47.75-29.92,53.47-30.56,53.47-30.56,0,0-75.75,38.83-147.05,21.64Z"/>
        <path class="cls-6" d="m851.99,881.53s-4.72,35.27,9.23,98.67c.7,3.18,13.92,63.35,25.04,30.87,10.61-30.98,57.72-29.17,52.2-29.17s-27.16-2.55-23.34-14.85c3.82-12.31,14.43-.42,20.37-14.85,5.94-14.43,17.4-59.84,13.58-68.75-3.82-8.91-12.31-10.61-24.61,6.37-12.31,16.98-54.22,6.15-72.47-8.28Z"/>
        <path class="cls-25" d="m977.5,897.87s-5.09,26.31-11.46,41.59c-6.36,15.28.85,26.74,5.73,25.04,4.88-1.7,8.63-10.7,14.18.17,5.55,10.87-5.91,12.14-3.36,16.38,2.55,4.24,32.46-1.59,46.04,23.02,13.58,24.61,14.22,31.3.64,32.15,0,0,5.77,22.17,30.56,26.1,40.1,6.36,121.7-92.83,84.03-112.01-25.16-12.81-72.57-14.67-79.79-45.65-5.04-21.65-18.25-5.52-45.41-2.97-27.16,2.55-38.06-17.91-41.17-3.82Z"/>
        <path class="cls-26" d="m889.23,1041.31s16.55,62.07,45.2,82.76c28.65,20.69,94.21-3.18,97.4-38.83,3.18-35.65-47.16-26.38-74.54-14.28-27.37,12.1-44.61-30.07-15.01-23.7,29.6,6.36,49.12-3.4,55.81-10.72,6.68-7.32-16.57,7.57-34.54-8.03-17.98-15.6-17.55-20.41-31.88-5.45-14.32,14.96-32.89,15.71-42.44,18.25Z"/>
        <path class="cls-24" d="m923.61,1142.74s-27.59,27.16-20.8,39.89c6.79,12.73,3.82,28.86,8.91,28.86s86.57,13.58,95.91,5.94c9.34-7.64,172.3-110.34,167.21-127.32-5.09-16.98-18.82-63.66-21.29-61.54-2.47,2.12-141.58,132.84-190.01,153.21,0,0-26.36-9.34-39.94-39.05Z"/>
        <path class="cls-23" d="m887.53,1204.28c1.76-1.74,15.28,23.34,15.28,23.34,0,0-16.97,18.68-13.58,55.17,0,0-34.8,44.56-41.59,72.57,0,0-18.67-93.37,39.89-151.08Z"/>
        <path class="cls-13" d="m910.03,1288.73s-14.43,28.86-12.73,81.06c0,0,103.97-66.63,149.38-124.35,0,0-54.32,16.97-92.09,9.34,0,0-4.75,12.93-44.56,33.95Z"/>
        <path class="cls-19" d="m902.81,1393.98s217.1-121.37,272.15-275.85l64.39,13.62s-6.56,100.96-64.39,168.02l-71.84-14.43,28.43,56.02s-81.48,55.17-228.75,52.62Z"/>
      </g>
      <g>
        <path class="cls-21" d="m777.08,1455.09c8.75-4.31,15.77-7.03,21.08-8.16.31-.5.32-1.57.01-3.2-.31-1.63-.77-3.4-1.38-5.31-.61-1.91-1.34-3.77-2.19-5.57-.85-1.81-1.65-3.13-2.41-3.98-.12.11-.35.28-.68.53-.33.24-.74.52-1.22.84-3.56-1.3-7.7-2.29-12.42-2.99-4.72-.7-9.8-1.07-15.26-1.11-5.45-.04-11.18.18-17.18.68-6,.5-12.04,1.33-18.11,2.49-2.98-2.36-5.56-4.09-7.74-5.19-2.19-1.1-3.9-1.43-5.13-.98.7.79,1.61,1.81,2.72,3.05,1.11,1.24,2.37,2.66,3.77,4.24-5.02,1.1-9.66,2.2-13.9,3.32-4.25,1.11-8.04,2.21-11.39,3.29-3.35,1.08-6.15,2.13-8.4,3.15-2.25,1.02-3.86,1.97-4.83,2.84-1.28,1.14-1.84,2.65-1.69,4.53.15,1.88,1.1,4.66,2.84,8.33,2.68-2.06,5.74-4.05,9.18-5.98,3.44-1.92,7.06-3.65,10.86-5.18,3.51-1.49,7.16-2.79,10.96-3.88,3.8-1.1,7.7-2.12,11.69-3.07,1.68,1.88,3.4,3.81,5.15,5.78,1.76,1.97,3.41,3.83,4.95,5.56,1.54,1.73,2.94,3.29,4.18,4.69,1.24,1.4,1.93,2.8,2.04,4.22-4.66,2.95-9.02,6-13.09,9.13-4.07,3.14-7.96,6.35-11.66,9.66-.84.75-1.63,1.45-2.38,2.12-.75.66-1.48,1.38-2.21,2.13-.2.5-.2,1.34,0,2.53.2,1.19.58,2.48,1.13,3.89.56,1.41,1.2,2.79,1.94,4.16.73,1.36,1.48,2.47,2.23,3.32.32.36.54.61.65.73.11.12.25.22.41.29,1.41-1.48,2.81-2.83,4.21-4.08,1.4-1.25,2.76-2.46,4.1-3.65,3.83-3.41,7.38-6.39,10.67-8.93,3.29-2.55,6.28-4.75,8.98-6.61,10.91-7.44,20.74-13.31,29.49-17.62Zm-42.18-19.29c4.72-.83,9.34-1.43,13.86-1.81,4.52-.38,8.74-.54,12.66-.49,3.92.05,7.43.35,10.54.9,3.11.55,5.62,1.34,7.52,2.37-1.92,1.16-3.77,2.24-5.56,3.24-1.79,1-3.22,1.75-4.29,2.27-3.22,1.67-6.35,3.34-9.39,5.02-3.05,1.68-6.06,3.41-9.06,5.21-5.79-6.5-11.21-12.07-16.27-16.71Z"/>
        <path class="cls-22" d="m804.12,1508.04c.24-2.06,1.44-4.52,3.6-7.37,2.31-3.04,5.23-5.68,8.76-7.91.07-.77-.21-1.61-.83-2.54-.62-.93-1.39-1.74-2.29-2.43-.97-.74-1.78-1.09-2.41-1.06-4.99,1.73-9.91,3-14.76,3.81-4.85.81-10.21,1.44-16.07,1.9,4.51-3.11,8.43-5.5,11.78-7.14,3.34-1.65,6.68-2.84,10-3.59-.04-.75-.24-1.64-.58-2.66-.34-1.03-.8-2.11-1.36-3.25-.57-1.14-1.21-2.24-1.93-3.3-.73-1.06-1.5-2-2.3-2.82-1.37.19-2.81.6-4.31,1.24-1.51.64-3.45,1.65-5.81,3.02-3.28,1.9-6.86,4.13-10.75,6.7-3.89,2.56-7.7,5.16-11.43,7.79-3.73,2.63-7.17,5.18-10.32,7.64-3.15,2.46-5.59,4.51-7.34,6.15-.2.67-.2,1.54,0,2.61.2,1.07.52,2.18.93,3.31.42,1.13.89,2.18,1.43,3.16.54.97,1.08,1.71,1.61,2.22,4.36-3.73,8.31-6.81,11.84-9.24,3.53-2.43,7-4.31,10.41-5.65,3.41-1.34,6.97-2.22,10.65-2.64,3.69-.42,7.86-.54,12.53-.37-.78,2.37-1.09,4.87-.93,7.49.16,2.62.76,5.05,1.83,7.28,1.71-.23,3.39-.59,5.03-1.08,1.65-.49,2.65-.9,3.01-1.24Z"/>
        <path class="cls-14" d="m862.59,1493.55c-.91-1.03-1.84-1.99-2.8-2.86-.95-.87-1.79-1.51-2.49-1.91-.77.03-2,.34-3.7.95-1.7.6-3.62,1.43-5.77,2.47-2.14,1.05-4.42,2.25-6.83,3.6-2.41,1.36-4.75,2.78-7,4.27-1.41-.81-2.97-1.69-4.66-2.66-1.69-.97-3.38-2.12-5.06-3.45-.56.99-1.1,2.25-1.6,3.79-.5,1.54-.7,2.62-.59,3.25l6.04,3.45c-3.2,2.49-6.31,5.07-9.34,7.75-3.03,2.68-5.83,5.3-8.41,7.86-2.58,2.56-4.84,5-6.77,7.32-1.93,2.32-3.38,4.33-4.35,6.03-.73,1.27-1,2.83-.83,4.66.17,1.83.68,3.69,1.52,5.58.84,1.88,1.95,3.69,3.31,5.4,1.36,1.71,2.93,3.07,4.69,4.08.61.25,1.63.42,3.08.5,1.45.08,3.01.06,4.67-.06,1.66-.12,3.25-.31,4.75-.57,1.5-.26,2.65-.58,3.43-.97.17-.47.23-1.14.16-2.01-2.17.36-4.43.38-6.78.07-2.35-.31-4.67-.93-6.95-1.86-2.13-1.68-2.31-4.08-.53-7.2,1.25-2.2,2.93-4.52,5.04-6.98,2.1-2.46,4.53-4.98,7.26-7.55,2.73-2.57,5.75-5.15,9.04-7.73,3.3-2.58,6.8-5.06,10.5-7.46,4.95,2.82,9.53,4.55,13.76,5.18.32-.56.53-1.17.62-1.82.09-.65.06-1.25-.09-1.81-1.61-.63-3.13-1.37-4.58-2.19-1.45-.83-2.88-1.64-4.29-2.45,3.44-1.94,6.58-3.62,9.4-5.03,2.82-1.41,6.05-2.85,9.69-4.31-.11-.63-.51-1.41-1.18-2.36-.68-.95-1.47-1.94-2.38-2.97Z"/>
        <path class="cls-20" d="m921.26,1540.31c-.39-.13-.74-.22-1.06-.29-.32-.06-.68-.16-1.06-.29-1-4.96-2.52-8.51-4.55-10.65-3.7-1.24-8.21-.98-13.5.77-3.37,1.11-6.68,2.66-9.92,4.67-3.24,2-6.23,4.29-8.97,6.85-2.74,2.56-5.13,5.35-7.16,8.35-2.03,3.01-3.56,6.06-4.59,9.14-1.75,5.25-1.88,10.01-.39,14.28,1.49,4.27,4.36,7.37,8.6,9.3,4.96.54,9.8.24,14.51-.89,4.71-1.13,9.06-3,13.06-5.61,4-2.61,7.52-5.83,10.55-9.67,3.03-3.83,5.36-8.18,6.98-13.04,2.42-7.25,1.58-11.56-2.51-12.93Zm-4.44,4.44c-.15,1.23-.57,2.86-1.23,4.86-1.52,4.55-3.54,8.64-6.08,12.25-2.54,3.61-5.39,6.65-8.57,9.11-3.18,2.46-6.57,4.26-10.17,5.42-3.6,1.16-7.27,1.54-11,1.16-.69-.49-1.07-1.68-1.12-3.59-.05-1.9.23-3.78.85-5.63.51-1.54,1.33-3.22,2.45-5.04,1.12-1.81,2.45-3.64,4.01-5.48,1.56-1.84,3.26-3.61,5.11-5.3,1.85-1.7,3.73-3.21,5.63-4.55,2.75-1.83,5.83-3.41,9.24-4.76,3.41-1.35,6.98-1.96,10.71-1.83.25,1.03.31,2.16.15,3.4Z"/>
        <path class="cls-16" d="m1002.7,1510.4c-.88-.17-1.96-.15-3.24.06-1.28.21-2.34.52-3.16.94-.48-.09-1.15-.28-2-.57-.86-.29-1.76-.52-2.72-.71-3.28-.63-6.69-.33-10.23.89-3.55,1.22-7.09,3.28-10.63,6.16-3.54,2.88-7.01,6.5-10.41,10.86-3.41,4.36-6.65,9.38-9.73,15.08-3.03-.17-5.84-.23-8.41-.19-2.58.04-4.29.15-5.15.31-.09.48-.09,1.02,0,1.62.09.6.27,1.09.52,1.47,1.5-.04,3.01.08,4.53.37,1.52.29,3.59.69,6.23,1.2-4.81,9.5-8.83,17.59-12.07,24.29-3.23,6.7-5.98,12.58-8.24,17.64-2.26,5.06-4.19,9.59-5.78,13.59-1.6,3.99-3.11,7.96-4.53,11.91,2.14,1.82,3.15,3.84,3.06,6.06-.03,2.31.88,4.06,2.72,5.24,1.28-3.22,3.18-7.41,5.71-12.57,2.53-5.17,5.49-11.01,8.9-17.52,3.41-6.52,7.22-13.62,11.43-21.3,4.21-7.68,8.7-15.73,13.46-24.13l13.18,2.54c.19-1.43.27-2.83.25-4.18-.03-1.36-.21-2.26-.54-2.71l-10.06-1.94c2.65-4.75,5.3-9.06,7.95-12.91,2.65-3.85,5.16-7.13,7.55-9.84,2.38-2.71,4.55-4.74,6.51-6.09,1.96-1.35,3.61-1.9,4.97-1.64-.55,1.55-.93,2.65-1.13,3.32-.21.66-.36,1.23-.45,1.71-.17.88-.25,1.61-.23,2.19.01.58.11,1.26.29,2.04.09,1.67.02,3.35-.23,5.04-.37,2.33-.11,3.58.77,3.75,2.57-1.32,5.43-4.75,8.56-10.26.83-1.74,1.79-3.5,2.88-5.28,1.09-1.77,2.06-3.16,2.91-4.16-1.32-1.33-2.45-2.09-3.41-2.27Z"/>
        <path class="cls-17" d="m1087.95,1511.17c-1.21-.75-2.53-1.43-3.97-2.05-1.44-.61-2.85-1.12-4.24-1.53-1.38-.41-2.48-.62-3.3-.63-1.03,1.32-2.14,3.3-3.34,5.95-1.2,2.65-2.43,5.71-3.68,9.18-1.25,3.47-2.49,7.29-3.72,11.46-1.23,4.17-2.39,8.43-3.49,12.79-3.97.34-8.5,1.04-13.6,2.09-5.09,1.05-10.12,2.14-15.09,3.27,1.38-3.87,2.65-7.56,3.82-11.05,1.17-3.49,2.26-6.64,3.28-9.47,1.02-2.82,1.98-5.25,2.86-7.29.88-2.04,1.65-3.57,2.3-4.61-2.31-3.15-4.97-5.77-7.97-7.88-3-2.11-6.23-3.34-9.69-3.69-.51,5.43-.96,9.92-1.35,13.46-.39,3.54-.84,6.79-1.36,9.73-.52,2.94-1.2,5.96-2.03,9.05-.84,3.09-1.91,6.9-3.24,11.42l-1.24,4.03c-2.07.59-3.8,1.12-5.19,1.61-1.39.49-2.27.91-2.65,1.27,1.07,1.95,2.99,3.38,5.76,4.28-1.5,5.27-2.84,9.9-4,13.88-1.17,3.98-2.21,7.46-3.14,10.44-.93,2.98-1.73,5.52-2.4,7.62-.67,2.1-1.28,3.83-1.82,5.18,1.94,2.61,4,4.74,6.19,6.38,2.18,1.65,4.84,2.7,7.99,3.17.63-6.92,1.7-14.06,3.23-21.43,1.53-7.37,3.75-15.47,6.65-24.3,3.97-.34,8.62-1.09,13.95-2.23,5.33-1.15,10.65-2.16,15.96-3.05-1.34,6.25-2.34,12.11-3.01,17.57-.67,5.46-.86,9.9-.56,13.31.06.73.22,1.66.49,2.78.26,1.12.6,2.24,1.02,3.35.42,1.11.92,2.09,1.48,2.94.56.85,1.14,1.38,1.73,1.57.76.26,1.32.68,1.7,1.26.37.58.79,1.16,1.25,1.73.46.57,1.12,1.09,1.97,1.55.85.46,2.17.61,3.96.46-.11-.32-.21-.71-.29-1.2-.08-.48-.16-1.13-.23-1.94-.19-2.18-.2-4.91-.03-8.18.17-3.27.46-6.88.9-10.83.43-3.95,1.03-8.11,1.8-12.49.76-4.38,1.64-8.82,2.65-13.3.82.01,1.59-.02,2.32-.08.73-.06,1.47-.02,2.21.11.54-1.35.74-2.8.61-4.34-.19-2.19-1.16-3.94-2.9-5.26.91-3.67,1.9-7.23,3-10.67,1.09-3.44,2.22-6.64,3.4-9.6,1.17-2.96,2.39-5.59,3.66-7.91,1.27-2.31,2.57-4.22,3.91-5.73-.47-.69-1.31-1.42-2.52-2.17Z"/>
        <path class="cls-15" d="m1123.96,1529.66c-.39.11-.74.23-1.04.36-.3.13-.65.25-1.04.36-3.62-3.54-6.88-5.61-9.76-6.23-3.76,1.07-7.33,3.82-10.72,8.24-2.16,2.81-4.02,5.96-5.56,9.44-1.55,3.48-2.73,7.05-3.55,10.71-.82,3.66-1.22,7.3-1.21,10.93.02,3.63.47,7.01,1.36,10.14,1.51,5.32,4.08,9.33,7.72,12.01,3.64,2.69,7.75,3.63,12.35,2.84,4.41-2.35,8.23-5.32,11.49-8.91,3.25-3.59,5.79-7.58,7.63-11.99,1.84-4.41,2.93-9.05,3.28-13.93.35-4.88-.18-9.78-1.58-14.71-2.09-7.35-5.21-10.44-9.35-9.27Zm.48,36.77c-1.24,3.82-3.02,7.22-5.35,10.21-2.32,2.99-5.13,5.37-8.43,7.15-.85-.01-1.83-.79-2.95-2.34-1.12-1.54-1.94-3.25-2.47-5.13-.44-1.56-.71-3.41-.81-5.54-.1-2.13-.02-4.39.23-6.79.25-2.4.66-4.82,1.24-7.26.57-2.45,1.27-4.76,2.09-6.94,1.25-3.06,2.9-6.11,4.95-9.14,2.05-3.04,4.66-5.55,7.81-7.54.79.71,1.47,1.61,2.04,2.72.57,1.11,1.14,2.68,1.72,4.71,1.31,4.62,1.94,9.13,1.88,13.54-.06,4.41-.71,8.53-1.95,12.35Z"/>
        <path class="cls-18" d="m1180.66,1512.82c-1.58-3.48-2.5-7.31-2.77-11.47-.64-.42-1.52-.59-2.63-.49-1.11.1-2.19.39-3.23.86-1.11.5-1.81,1.04-2.08,1.61-.86,5.21-2.09,10.14-3.69,14.79-1.6,4.65-3.6,9.66-6,15.03-.59-5.45-.81-10.03-.66-13.76.14-3.73.68-7.23,1.61-10.5-.68-.32-1.55-.57-2.62-.76-1.07-.19-2.24-.31-3.51-.36-1.27-.05-2.55,0-3.83.12-1.28.13-2.47.36-3.58.68-.49,1.29-.81,2.75-.96,4.39-.16,1.63-.2,3.82-.12,6.55.11,3.79.36,8.01.76,12.64.4,4.64.87,9.23,1.4,13.76.53,4.54,1.13,8.77,1.79,12.71.66,3.94,1.3,7.07,1.9,9.38.49.49,1.26.91,2.3,1.24,1.04.33,2.16.58,3.36.76,1.19.17,2.35.26,3.46.24,1.11-.01,2.02-.13,2.72-.36-1.2-5.62-2.02-10.55-2.48-14.81-.45-4.26-.45-8.21,0-11.85.45-3.64,1.37-7.18,2.76-10.62,1.39-3.44,3.28-7.17,5.65-11.19,1.71,1.82,3.76,3.28,6.13,4.39,2.38,1.11,4.8,1.74,7.27,1.87.61-1.61,1.09-3.26,1.45-4.94.36-1.68.47-2.76.34-3.24-1.7-1.19-3.29-3.42-4.76-6.69Z"/>
        <path class="cls-27" d="m1230.09,1515.77c-.51,2.3-1.19,4.57-2.03,6.79-.85,2.23-1.9,4.32-3.16,6.28-1.26,1.96-2.81,3.53-4.67,4.71-.96.61-1.91.86-2.86.74-.95-.12-1.85-.48-2.72-1.09-.87-.6-1.68-1.34-2.43-2.21-.75-.87-1.41-1.75-1.98-2.64-.31-.48-.58-.95-.83-1.42-.25-.47-.51-.91-.77-1.32,3.29-4.51,6-8.75,8.11-12.7,2.11-3.95,3.58-7.81,4.41-11.57.83-3.76.89-7.56.18-11.4-.71-3.84-2.29-7.97-4.73-12.4-4.97-1.75-9.17-1.82-12.59-.22-2.26,1.44-4.21,3.41-5.86,5.91-1.64,2.5-2.97,5.32-4,8.48-1.02,3.16-1.71,6.54-2.07,10.15-.36,3.61-.37,7.21-.05,10.81.32,3.61,1.02,7.12,2.09,10.54,1.07,3.42,2.5,6.53,4.3,9.34,2.62,4.11,6.19,6.79,10.69,8.02,4.5,1.23,9.29.61,14.37-1.86,2.81-2.86,5.18-6.81,7.13-11.86,1.94-5.05,3.14-10.62,3.6-16.7-.83-.24-1.79-.45-2.86-.63-.35,1.87-.79,3.95-1.29,6.25Zm-25.36-5.61c-.31-3.66-.25-7.08.19-10.25.44-3.17,1.25-6.01,2.46-8.51,1.2-2.5,2.64-4.48,4.32-5.94,2.74,4.91,3.58,10.53,2.5,16.86-1.08,6.33-3.48,12.62-7.22,18.86-1.19-3.68-1.94-7.35-2.25-11.01Z"/>
        <path class="cls-29" d="m1276.46,1474.55c-.51-.21-.96-.29-1.37-.26-.49,2.28-1.08,4.53-1.77,6.76-.69,2.23-1.43,4.32-2.21,6.26-.79,1.94-1.6,3.66-2.45,5.16-.85,1.5-1.67,2.72-2.48,3.65-3.06.96-6.76-1.04-11.12-5.98-3.44-3.91-6.04-8.25-7.81-13.03-1.77-4.78-2.63-9.79-2.58-15.03.04-3.4.47-6.48,1.28-9.25.81-2.77,1.83-4.7,3.05-5.77,1.4-1.24,2.89-.97,4.44.8,2.69,3.05,3.62,8.24,2.81,15.57,1.13.3,2.28.35,3.45.13,1.17-.21,2.12-.64,2.85-1.29.85-.75,1.43-1.83,1.72-3.22.29-1.39.3-2.89.03-4.49-.27-1.6-.79-3.23-1.55-4.9-.76-1.66-1.75-3.2-2.99-4.6-2.58-2.93-5.42-4.44-8.53-4.52-3.11-.08-6.25,1.27-9.42,4.07-3.24,2.85-5.68,6.38-7.33,10.6-1.65,4.22-2.54,8.63-2.66,13.23-.12,4.6.54,9.17,1.98,13.7,1.44,4.53,3.69,8.54,6.75,12.02,2.09,2.38,4.49,4.34,7.19,5.86,2.7,1.53,5.46,2.57,8.27,3.12,2.82.56,5.58.59,8.29.1,2.71-.49,5.16-1.53,7.33-3.12.88-1.1,1.69-2.6,2.45-4.51.76-1.91,1.42-4.02,2-6.31.58-2.3,1-4.65,1.27-7.05.27-2.4.36-4.7.27-6.9-.27-.3-.66-.56-1.16-.77Z"/>
        <path class="cls-28" d="m1321.07,1434.58c-1.48-.55-3.12-1.53-4.91-2.94-1.6-1.26-3.32-2.95-5.16-5.08-1.84-2.13-3.71-4.56-5.6-7.29-1.89-2.73-3.76-5.71-5.62-8.93-1.86-3.22-3.63-6.53-5.3-9.93-.32-.25-.86-.29-1.62-.11-.76.18-1.59.48-2.5.9-.91.43-1.81.98-2.71,1.67-.9.69-1.61,1.35-2.11,1.99.92,1.86,1.84,3.81,2.78,5.84.94,2.03,1.84,4.07,2.72,6.11.88,2.04,1.71,4.01,2.48,5.92.78,1.91,1.49,3.63,2.13,5.18,3.09,8.03,5.08,14.36,5.94,18.97.87,4.62.76,8-.32,10.16-1.02.65-2.14.49-3.35-.47-2.93-2.31-5.53-5.5-7.8-9.57-2.27-4.07-4.02-8.37-5.25-12.91-1.23-4.54-1.82-8.99-1.79-13.37.04-4.37.87-7.99,2.5-10.84-.62-.39-1.54-.64-2.74-.76-1.2-.12-2.47-.11-3.81.02-1.34.13-2.62.37-3.82.72-1.2.35-2.15.76-2.85,1.25-2.06,2.62-3.06,6.23-3,10.84.06,4.61.85,9.45,2.36,14.52,1.51,5.08,3.65,9.95,6.42,14.61,2.77,4.67,5.95,8.42,9.54,11.25,3.34,2.63,6.66,4.06,9.96,4.28,3.31.22,5.89-.85,7.75-3.21.9-1.67,1.42-3.87,1.57-6.61.14-2.73-.09-5.74-.7-9.02s-1.55-6.76-2.82-10.46c-1.27-3.69-2.86-7.33-4.78-10.91,4.41,7.41,8.44,12.55,12.08,15.42,4.73,3.73,8.45,3.86,11.17.41.75-.96,1.45-2.17,2.09-3.63.63-1.47,1-2.78,1.09-3.95-1.22.49-2.57.46-4.05-.08Z"/>
      </g>
    </g>
  </g>
</svg>